# xmcd
#
# Track frame offsets:
#	150
#	14773
#	32829
#	49990
#	72976
#	87056
#	100432
#	114217
#	130664
#	152007
#	166934
#	185698
#	207135
#	220251
#
# Disc length: 3145 seconds
#
# Revision: 0
# Processed by: cddbd v1.5.1PL0 Copyright (c) Steve Scherf et al.
# Submitted via: dBpowerAMP V4.0
#
DISCID=c00c470e
DTITLE=John Denver - The Country Collection
DYEAR=1900
DGENRE=Country
TTITLE0=01 Take me home countryroads
TTITLE1=02 Windsong
TTITLE2=03 Calypso
TTITLE3=04 Sunshine on my shoulders
TTITLE4=05 Annie's song
TTITLE5=06 Eagle and the hawk
TTITLE6=07 Thank God, I'm a countryboy
TTITLE7=08 Leaving on a jetplane
TTITLE8=09 Back home again
TTITLE9=10 For you
TTITLE10=11 Rocky mountain high
TTITLE11=12 The gift you are
TTITLE12=13 The flower that shattered the stone
TTITLE13=14 Higher ground
EXTD=mcps/FonoTeam 7015\nrainbowcd.com
EXTT0=
EXTT1=
EXTT2=
EXTT3=
EXTT4=
EXTT5=
EXTT6=
EXTT7=
EXTT8=
EXTT9=
EXTT10=
EXTT11=
EXTT12=
EXTT13=
PLAYORDER=
